<svg version="1.1" xmlns="http://www.w3.org/2000/svg" xmlns:xlink="http://www.w3.org/1999/xlink" x="0px" y="0px"
     viewBox="0 0 24 24" enable-background="new 0 0 24 24" xml:space="preserve" fill="#000000">
  <circle cx="12" cy="12" r="5"/>
  <path d="M12,2c0.6,0,1,0.4,1,1v2c0,0.6-0.4,1-1,1s-1-0.4-1-1V3C11,2.4,11.4,2,12,2z"/>
  <path d="M12,18c0.6,0,1,0.4,1,1v2c0,0.6-0.4,1-1,1s-1-0.4-1-1v-2C11,18.4,11.4,18,12,18z"/>
  <path d="M22,11c0.6,0,1,0.4,1,1s-0.4,1-1,1h-2c-0.6,0-1-0.4-1-1s0.4-1,1-1H22z"/>
  <path d="M5,11c0.6,0,1,0.4,1,1s-0.4,1-1,1H3c-0.6,0-1-0.4-1-1s0.4-1,1-1H5z"/>
  <path d="M17.7,4.9c0.4-0.4,1-0.4,1.4,0c0.4,0.4,0.4,1,0,1.4l-1.4,1.4c-0.4,0.4-1,0.4-1.4,0c-0.4-0.4-0.4-1,0-1.4L17.7,4.9z"/>
  <path d="M17.7,19.1c-0.4,0.4-1,0.4-1.4,0l-1.4-1.4c-0.4-0.4-0.4-1,0-1.4c0.4-0.4,1-0.4,1.4,0l1.4,1.4C18.1,18.1,18.1,18.7,17.7,19.1z"/>
  <path d="M4.9,6.3c-0.4-0.4-0.4-1,0-1.4c0.4-0.4,1-0.4,1.4,0l1.4,1.4c0.4,0.4,0.4,1,0,1.4c-0.4,0.4-1,0.4-1.4,0L4.9,6.3z"/>
  <path d="M6.3,19.1c-0.4,0.4-1,0.4-1.4,0c-0.4-0.4-0.4-1,0-1.4l1.4-1.4c0.4-0.4,1-0.4,1.4,0c0.4,0.4,0.4,1,0,1.4L6.3,19.1z"/>
</svg>